<?xml version="1.0" standalone="no"?>
<!DOCTYPE svg PUBLIC "-//W3C//DTD SVG 20010904//EN"
 "http://www.w3.org/TR/2001/REC-SVG-20010904/DTD/svg10.dtd">
<svg version="1.0" xmlns="http://www.w3.org/2000/svg"
 width="500.000000pt" height="500.000000pt" viewBox="0 0 500.000000 500.000000"
 preserveAspectRatio="xMidYMid meet">

<g transform="translate(0.000000,500.000000) scale(0.100000,-0.100000)"
fill="#000000" stroke="none">
<path d="M2238 4479 c-188 -24 -416 -94 -603 -183 -541 -260 -931 -741 -1074
-1326 -42 -175 -54 -278 -54 -480 1 -446 134 -840 407 -1205 77 -103 268 -294
375 -374 528 -400 1215 -514 1838 -306 647 215 1145 750 1308 1405 57 230 75
519 46 740 -115 869 -766 1554 -1630 1715 -46 8 -128 18 -182 22 l-99 6 0
-186 0 -186 58 -6 c400 -41 763 -210 1013 -471 82 -86 110 -135 144 -249 15
-49 34 -102 41 -117 8 -15 10 -29 5 -32 -4 -3 -5 -25 0 -48 13 -73 4 -197 -21
-266 -19 -55 -21 -69 -11 -107 15 -58 14 -71 -5 -89 -23 -23 -45 -20 -126 18
-105 50 -151 61 -185 48 -34 -14 -98 -8 -120 10 -14 11 1 14 95 18 119 5 142
15 185 72 28 38 34 116 12 159 -35 67 -207 310 -232 326 -35 23 -111 28 -155
10 -25 -11 -63 -47 -120 -117 -45 -55 -93 -103 -105 -106 -12 -3 -62 3 -110
14 -148 35 -250 45 -438 46 -185 0 -258 -8 -427 -46 -65 -14 -104 -18 -117
-12 -10 5 -53 51 -95 102 -97 117 -123 134 -196 130 -31 -2 -67 -12 -83 -22
-26 -18 -195 -255 -232 -325 -22 -43 -16 -121 12 -159 43 -57 66 -67 185 -72
94 -4 109 -7 95 -18 -21 -18 -94 -24 -119 -11 -27 14 -91 -2 -186 -47 -40 -19
-82 -34 -93 -34 -32 0 -44 41 -30 104 10 45 10 60 -2 83 -28 56 -38 129 -34
249 3 99 9 137 36 224 41 131 67 177 150 264 243 254 601 425 972 466 57 6
104 12 104 13 0 1 -1 84 -3 185 l-3 182 -62 -1 c-34 -1 -92 -5 -129 -10z
m-494 -1120 c69 -54 75 -139 13 -206 l-20 -23 26 0 c39 0 96 -56 103 -101 9
-56 -20 -107 -74 -131 -42 -19 -46 -19 -87 -3 -27 10 -52 28 -64 48 -13 21
-21 26 -21 15 0 -9 -11 -30 -25 -46 -18 -21 -22 -32 -13 -35 7 -3 4 -5 -7 -5
-11 -1 -41 -4 -66 -8 -84 -12 -149 46 -149 133 0 55 44 108 102 123 33 10 46
8 81 -9 24 -11 51 -35 62 -53 17 -29 20 -30 23 -13 2 11 16 32 30 48 l26 27
-30 0 c-32 0 -77 26 -99 57 -40 57 -21 147 39 184 43 26 115 25 150 -2z m1664
1 c34 -21 62 -71 62 -111 0 -62 -64 -129 -124 -129 l-30 0 26 -27 c14 -16 28
-37 33 -48 7 -20 7 -20 15 1 11 29 64 71 100 79 40 9 110 -25 133 -64 9 -16
17 -49 17 -75 0 -93 -104 -155 -188 -112 -19 10 -32 12 -35 6 -3 -6 -4 -5 -3
2 2 7 -5 24 -15 37 -11 13 -19 31 -19 40 -1 10 -6 7 -15 -10 -31 -57 -97 -78
-159 -51 -44 20 -76 67 -76 112 0 53 61 120 111 120 l27 0 -28 28 c-31 32 -46
86 -35 129 3 15 22 42 41 60 30 28 43 33 82 33 29 0 59 -8 80 -20z m-1103
-220 c0 -8 -8 -16 -17 -18 -13 -2 -18 3 -18 18 0 15 5 20 18 18 9 -2 17 -10
17 -18z m-87 -13 c2 -10 -3 -17 -12 -17 -18 0 -29 16 -21 31 9 14 29 6 33 -14z
m-83 -17 c0 -22 -29 -18 -33 3 -3 14 1 18 15 15 10 -2 18 -10 18 -18z m-1041
-168 c3 -5 -3 -40 -14 -78 -10 -38 -24 -102 -30 -141 -7 -40 -14 -73 -17 -73
-2 0 -13 5 -23 10 -21 11 -21 15 7 150 8 41 21 90 29 108 12 30 37 42 48 24z
m2867 -19 c16 -43 49 -194 49 -229 0 -23 -5 -33 -20 -37 -22 -6 -25 1 -35 77
-4 26 -15 82 -26 123 -11 41 -17 78 -14 84 12 18 36 9 46 -18z m-2346 -43 c3
-5 1 -10 -4 -10 -6 0 -11 5 -11 10 0 6 2 10 4 10 3 0 8 -4 11 -10z m1785 -6
c0 -2 -9 -4 -21 -4 -11 0 -18 4 -14 10 5 8 35 3 35 -6z m-751 -99 c54 -30 103
-82 137 -145 30 -55 27 -210 -4 -269 -123 -230 -450 -226 -564 7 -26 55 -35
157 -19 219 24 87 119 186 205 213 17 5 67 8 111 7 67 -3 89 -8 134 -32z
m-1495 -80 c-4 -8 -8 -15 -10 -15 -2 0 -4 7 -4 15 0 8 4 15 10 15 5 0 7 -7 4
-15z m2716 0 c0 -8 -4 -15 -10 -15 -5 0 -10 7 -10 15 0 8 5 15 10 15 6 0 10
-7 10 -15z m-2480 -445 c0 -6 42 -10 105 -10 58 0 105 -4 105 -9 0 -11 -53
-32 -166 -65 -97 -29 -119 -41 -143 -81 -26 -42 -34 -88 -22 -130 9 -32 162
-284 200 -329 9 -10 34 -27 56 -37 34 -16 67 -19 223 -19 201 0 230 6 273 57
14 17 44 67 68 111 23 45 51 87 62 92 11 6 41 10 67 8 l47 -3 17 -75 c27 -117
44 -308 30 -331 -7 -10 -12 -25 -12 -33 0 -8 -9 -30 -19 -48 -18 -31 -23 -52
-36 -173 -16 -144 -37 -188 -103 -217 -42 -19 -54 -20 -108 -11 -113 20 -354
142 -509 258 -169 128 -356 341 -439 502 l-16 32 56 3 55 3 3 135 c2 99 7 148
20 183 16 41 16 54 6 98 -7 27 -9 53 -5 57 6 6 141 38 173 41 6 1 12 -3 12 -9z
m357 -8 c1 -10 -5 -19 -13 -19 -17 0 -19 23 -1 30 6 3 12 6 12 6 1 1 1 -7 2
-17z m40 3 c0 -8 -6 -15 -14 -15 -14 0 -17 12 -6 23 11 11 20 8 20 -8z m1453
0 c0 -8 -7 -15 -15 -15 -8 0 -15 7 -15 15 0 8 7 15 15 15 8 0 15 -7 15 -15z
m50 -12 c0 -11 3 -13 13 -5 18 15 92 -64 106 -114 16 -57 14 -74 -15 -132 -69
-139 -254 -142 -331 -7 -36 63 -28 147 20 210 26 35 27 11 2 -40 -31 -60 -31
-98 -2 -155 43 -87 142 -117 227 -69 79 44 106 159 55 233 -14 20 -25 41 -25
47 0 6 -4 8 -9 5 -11 -7 -81 21 -81 32 0 14 11 21 26 15 8 -3 14 -12 14 -20z
m443 3 c37 -8 70 -16 72 -18 2 -2 -2 -26 -9 -53 -11 -44 -10 -57 7 -110 15
-44 21 -93 23 -185 l2 -125 51 -5 51 -5 -29 -50 c-44 -76 -139 -205 -210 -284
-128 -143 -307 -274 -506 -370 -188 -91 -254 -106 -329 -73 -69 31 -90 87
-111 297 -3 33 -15 75 -25 93 -11 18 -20 42 -20 52 0 10 -5 22 -11 26 -14 8
-5 137 17 274 24 139 24 140 82 140 26 0 56 -6 65 -12 9 -7 38 -53 66 -103 29
-53 64 -102 86 -120 l37 -30 196 -3 c275 -4 250 -19 424 257 65 103 72 119 72
165 0 65 -30 117 -81 140 -21 9 -85 31 -142 49 -140 44 -142 57 -7 57 59 0
108 4 111 10 3 6 16 8 28 5 12 -3 53 -11 90 -19z m-1887 -1 c4 -8 10 -12 15
-9 5 3 9 0 9 -5 0 -6 7 -11 15 -11 8 0 15 -7 15 -16 0 -8 4 -13 9 -10 5 3 14
-1 20 -8 9 -10 9 -16 1 -21 -6 -4 -24 7 -40 25 -24 27 -40 36 -72 39 -11 1 2
31 13 31 5 0 12 -7 15 -15z m1340 4 c8 -14 -18 -31 -30 -19 -9 9 0 30 14 30 5
0 12 -5 16 -11z m-1502 -35 c-16 -12 -33 -19 -38 -14 -12 12 3 32 19 26 7 -2
16 2 19 10 3 9 11 12 17 8 7 -4 1 -15 -17 -30z m1456 10 c0 -8 -4 -12 -10 -9
-5 3 -10 10 -10 16 0 5 5 9 10 9 6 0 10 -7 10 -16z m-1494 -35 c8 -14 -11 -33
-25 -25 -11 7 -4 36 9 36 5 0 12 -5 16 -11z m129 4 c-16 -3 -35 -12 -43 -21
-7 -10 -11 -11 -7 -4 3 6 1 12 -4 12 -6 0 -11 -4 -11 -10 0 -5 -6 -10 -13 -10
-18 0 -37 -35 -30 -58 2 -11 0 -23 -6 -26 -16 -10 -13 -44 5 -54 8 -5 21 -20
28 -33 10 -21 19 -24 69 -25 43 -2 63 3 82 18 14 11 23 23 21 26 -2 4 2 13 10
20 18 16 18 8 -1 -27 -8 -17 -30 -35 -55 -45 -46 -18 -73 -21 -50 -5 11 8 7 9
-17 4 -58 -11 -113 46 -113 117 0 26 3 30 11 18 8 -12 10 -10 5 9 -3 13 0 33
5 43 16 30 71 58 109 56 33 -1 33 -1 5 -5z m1523 -13 c92 -56 76 -196 -26
-229 -38 -12 -49 -11 -88 4 -42 16 -85 67 -70 83 3 3 6 0 6 -6 0 -7 8 -12 18
-13 12 0 13 -2 3 -6 -10 -4 -6 -12 13 -28 22 -19 37 -23 84 -21 49 1 58 4 68
25 7 13 20 28 28 33 18 10 21 44 5 54 -6 3 -8 15 -6 26 7 23 -12 58 -30 58 -7
0 -13 5 -13 10 0 6 -5 10 -11 10 -5 0 -7 -6 -4 -12 4 -7 0 -5 -9 6 -10 12 -23
17 -41 14 -14 -3 -25 -1 -25 3 0 17 65 9 98 -11z m-2215 -50 c23 -80 22 -92
-5 -88 -19 2 -26 14 -39 63 -11 40 -13 64 -6 73 19 25 34 11 50 -48z m770 39
c26 -19 52 -88 44 -112 -2 -7 -7 7 -11 30 -6 31 -17 50 -43 72 -40 34 -31 43
10 10z m1329 14 c-6 -2 -10 -9 -6 -14 3 -5 -3 -9 -13 -9 -22 0 -39 -26 -49
-74 -3 -20 -8 -35 -11 -32 -2 2 -1 20 2 40 8 39 54 97 77 95 10 0 10 -2 0 -6z
m788 -8 c9 -11 10 -25 0 -65 -15 -62 -36 -88 -56 -68 -11 11 -10 25 7 81 22
70 28 77 49 52z m-2358 -88 c-3 -52 0 -68 20 -97 72 -106 206 -109 282 -7 17
23 21 43 21 98 0 38 3 69 7 69 13 0 21 -49 16 -101 -6 -56 -43 -111 -97 -143
-41 -23 -125 -25 -167 -3 -70 36 -123 130 -108 194 18 85 30 80 26 -10z m193
28 c46 -45 19 -115 -45 -115 -75 0 -96 102 -27 130 35 14 46 12 72 -15z m1488
-7 c37 -44 6 -108 -53 -108 -35 0 -70 31 -70 61 0 69 77 99 123 47z m-1612
-266 c33 -31 42 -46 46 -83 10 -87 -48 -149 -139 -149 -39 0 -54 6 -82 31 -99
87 -41 239 92 239 36 0 49 -6 83 -38z m1800 15 c74 -49 86 -135 27 -202 -64
-74 -180 -59 -222 28 -28 61 -16 116 36 163 45 41 108 45 159 11z"/>
<path d="M1622 3344 c-5 -8 -20 -21 -33 -27 -19 -10 -25 -21 -27 -59 -4 -56
25 -95 79 -107 71 -16 129 30 129 102 0 54 -52 107 -104 107 -21 0 -38 -6 -44
-16z m117 -58 c-2 -2 -13 8 -23 22 l-19 27 24 -22 c12 -12 21 -24 18 -27z
m-41 18 c46 -32 20 -107 -38 -107 -37 0 -60 23 -60 62 0 52 53 77 98 45z m23
-107 l-24 -22 19 27 c10 14 21 24 23 22 3 -3 -6 -15 -18 -27z"/>
<path d="M1640 3290 c-11 -7 -6 -10 20 -10 26 0 31 3 20 10 -8 5 -17 10 -20
10 -3 0 -12 -5 -20 -10z"/>
<path d="M1685 3241 c-6 -5 -19 -11 -30 -14 -19 -4 -19 -5 1 -6 12 0 27 6 34
14 14 16 10 20 -5 6z"/>
<path d="M1443 3079 c-3 -12 -11 -18 -19 -15 -18 7 -44 -32 -44 -67 0 -119
155 -151 209 -42 31 64 -29 145 -107 145 -26 0 -35 -5 -39 -21z m102 -29 c10
-11 16 -20 13 -20 -3 0 -13 9 -23 20 -10 11 -16 20 -13 20 3 0 13 -9 23 -20z
m-5 -84 c0 -2 -8 -10 -17 -17 -16 -13 -17 -12 -4 4 13 16 21 21 21 13z m20 -9
c0 -2 -10 -12 -22 -23 l-23 -19 19 23 c18 21 26 27 26 19z"/>
<path d="M1691 3054 c-27 -34 -26 -57 2 -90 29 -33 69 -35 103 -4 31 30 31 64
-1 95 -33 34 -77 33 -104 -1z m79 -4 c11 -11 20 -27 20 -35 0 -16 -34 -55 -47
-55 -10 0 -40 20 -32 20 4 0 3 15 -1 34 -12 54 22 74 60 36z"/>
<path d="M3290 3350 c-13 -9 -13 -11 0 -20 8 -5 10 -10 4 -10 -6 0 -16 -10
-23 -22 -6 -13 -9 -15 -7 -6 7 25 -11 32 -23 9 -44 -81 33 -175 122 -150 93
25 106 154 20 198 -27 14 -73 14 -93 1z m111 -37 c13 -16 12 -17 -3 -4 -17 13
-22 21 -14 21 2 0 10 -8 17 -17z m-19 -10 c22 -20 24 -76 2 -93 -23 -20 -75
-16 -90 5 -45 62 32 139 88 88z m-97 -103 l20 -25 -22 19 c-13 11 -23 24 -23
29 0 6 1 8 3 6 1 -2 11 -15 22 -29z m115 -5 c-7 -8 -17 -15 -23 -15 -6 0 -2 7
9 15 25 19 30 19 14 0z"/>
<path d="M3320 3290 c-11 -7 -6 -10 20 -10 26 0 31 3 20 10 -8 5 -17 10 -20
10 -3 0 -12 -5 -20 -10z"/>
<path d="M3340 3230 c-23 -7 -23 -8 -3 -9 12 -1 25 4 28 9 3 6 5 10 3 9 -2 -1
-14 -5 -28 -9z"/>
<path d="M3454 3081 c-46 -28 -61 -80 -37 -129 23 -47 78 -77 117 -62 14 5 26
16 26 24 0 8 5 18 12 22 7 4 8 3 4 -4 -13 -22 13 -12 28 10 27 39 20 86 -18
124 -40 40 -83 45 -132 15z m26 -14 c0 -2 -10 -12 -22 -23 l-23 -19 19 23 c18
21 26 27 26 19z m80 -27 c54 -54 -12 -137 -76 -95 -32 21 -33 77 -2 99 30 21
54 20 78 -4z m-95 -100 c10 -11 16 -20 13 -20 -3 0 -13 9 -23 20 -10 11 -16
20 -13 20 3 0 13 -9 23 -20z"/>
<path d="M3494 3026 c-10 -8 -16 -18 -11 -22 4 -4 7 -2 7 4 0 7 11 12 25 12
16 0 25 -6 25 -15 0 -8 5 -15 10 -15 15 0 12 16 -6 34 -19 20 -25 20 -50 2z"/>
<path d="M3201 3054 c-27 -34 -26 -57 2 -88 33 -37 75 -39 107 -4 26 28 26 58
-1 92 -15 19 -30 26 -54 26 -24 0 -39 -7 -54 -26z m87 0 c32 -22 30 -71 -4
-84 -30 -12 -63 2 -65 28 -2 32 2 47 19 60 20 15 23 15 50 -4z"/>
<path d="M2421 2785 c-210 -59 -283 -302 -144 -483 37 -49 137 -94 211 -95
153 -3 261 77 298 222 36 142 -32 286 -162 342 -61 26 -140 31 -203 14z m-111
-69 c0 -2 -8 -10 -17 -17 -16 -13 -17 -12 -4 4 13 16 21 21 21 13z m168 -172
c38 -26 24 -84 -25 -99 -28 -8 -63 25 -63 59 0 24 32 56 55 56 6 0 21 -7 33
-16z m-194 -19 c9 -14 20 -25 25 -25 4 0 14 11 21 25 23 42 40 31 40 -25 0
-27 -4 -50 -10 -50 -5 0 -10 15 -10 33 l0 32 -20 -25 -20 -25 -25 30 -25 30 0
-37 c0 -21 -4 -38 -10 -38 -5 0 -10 23 -10 50 0 57 17 66 44 25z m336 18 c0
-5 -17 -22 -37 -40 l-38 -32 38 -1 c20 0 37 -4 37 -10 0 -5 -25 -10 -55 -10
-30 0 -55 4 -55 9 0 5 17 23 37 40 l38 31 -33 0 c-17 0 -32 5 -32 10 0 6 23
10 50 10 28 0 50 -3 50 -7z m115 -43 c20 -40 22 -50 10 -50 -8 0 -15 5 -15 10
0 14 -63 13 -78 -2 -24 -24 -22 0 4 45 14 26 32 47 40 47 7 0 25 -22 39 -50z
m-5 -183 c0 -2 -10 -12 -22 -23 l-23 -19 19 23 c18 21 26 27 26 19z"/>
<path d="M2420 2515 c-10 -12 -10 -18 0 -30 7 -8 18 -15 25 -15 7 0 18 7 25
15 10 12 10 18 0 30 -7 8 -18 15 -25 15 -7 0 -18 -7 -25 -15z"/>
<path d="M2681 2511 c-10 -18 -9 -21 9 -21 22 0 25 7 11 29 -7 11 -11 9 -20
-8z"/>
<path d="M1726 2099 c-30 -23 -33 -45 -10 -77 29 -42 104 -18 104 34 0 25 -10
38 -37 53 -28 14 -26 15 -57 -10z m69 -29 c4 -12 1 -27 -5 -35 -27 -33 -78 -5
-65 35 4 14 15 20 35 20 20 0 31 -6 35 -20z"/>
<path d="M1736 2071 c-11 -18 6 -42 28 -39 29 4 29 42 -1 46 -11 2 -24 -1 -27
-7z"/>
<path d="M3206 2099 c-30 -24 -34 -59 -8 -82 38 -35 102 -9 102 41 0 18 -42
62 -60 62 -4 0 -19 -9 -34 -21z m69 -29 c4 -12 1 -27 -5 -35 -27 -33 -78 -5
-65 35 4 14 15 20 35 20 20 0 31 -6 35 -20z"/>
<path d="M3214 2065 c-8 -19 3 -35 26 -35 19 0 30 17 23 38 -6 17 -42 15 -49
-3z"/>
<path d="M1538 1824 c-30 -16 -58 -61 -58 -94 0 -34 28 -79 61 -96 87 -45 190
58 145 144 -29 56 -94 76 -148 46z m113 -41 c13 -16 12 -17 -3 -4 -10 7 -18
15 -18 17 0 8 8 3 21 -13z m-35 -1 c42 -28 35 -95 -13 -113 -58 -22 -107 57
-64 100 21 21 56 27 77 13z"/>
<path d="M1560 1760 c-11 -7 -4 -10 25 -10 29 0 36 3 25 10 -8 5 -19 10 -25
10 -5 0 -17 -5 -25 -10z"/>
<path d="M1557 1698 c2 -5 15 -8 29 -8 13 0 24 3 24 8 0 4 -13 7 -29 7 -16 0
-27 -3 -24 -7z"/>
<path d="M3358 1824 c-38 -20 -61 -68 -54 -108 8 -40 52 -84 93 -92 26 -5 35
-1 54 20 12 14 26 23 30 20 12 -7 39 37 39 64 0 56 -57 113 -112 112 -13 -1
-35 -7 -50 -16z m12 -28 c0 -2 -8 -10 -17 -17 -16 -13 -17 -12 -4 4 13 16 21
21 21 13z m90 -26 c28 -28 25 -64 -6 -89 -34 -27 -50 -26 -79 4 -30 29 -31 45
-4 79 25 31 61 34 89 6z m-95 -100 c10 -11 16 -20 13 -20 -3 0 -13 9 -23 20
-10 11 -16 20 -13 20 3 0 13 -9 23 -20z"/>
<path d="M3390 1756 c-6 -8 -10 -25 -7 -38 4 -20 4 -20 6 5 0 15 8 30 16 33
20 8 45 -13 38 -32 -3 -8 0 -14 6 -14 16 0 13 26 -5 44 -19 20 -38 20 -54 2z"/>
</g>
</svg>
