<?xml version="1.0" standalone="no"?>
<!DOCTYPE svg PUBLIC "-//W3C//DTD SVG 20010904//EN"
 "http://www.w3.org/TR/2001/REC-SVG-20010904/DTD/svg10.dtd">
<svg version="1.0" xmlns="http://www.w3.org/2000/svg"
 width="500.000000pt" height="500.000000pt" viewBox="0 0 500.000000 500.000000"
 preserveAspectRatio="xMidYMid meet">

<g transform="translate(0.000000,500.000000) scale(0.100000,-0.100000)"
fill="#000000" stroke="none">
<path d="M2410 4499 c-19 -4 -85 -13 -145 -18 -374 -36 -784 -219 -1085 -483
-799 -704 -905 -1916 -240 -2747 188 -234 421 -420 692 -551 898 -434 1975
-139 2531 693 553 827 406 1944 -343 2605 -298 263 -712 447 -1085 483 -60 5
-129 14 -153 19 -49 11 -122 11 -172 -1z m427 -417 c289 -66 552 -202 755
-391 110 -103 149 -163 191 -292 45 -136 91 -230 141 -287 107 -121 137 -168
162 -251 19 -64 17 -108 -6 -141 -27 -39 -81 -70 -118 -70 -50 0 -189 48 -272
95 -100 55 -166 71 -214 54 -28 -10 -38 -10 -50 0 -8 7 -19 10 -25 7 -12 -8
-41 3 -41 15 0 5 43 9 96 9 68 0 106 5 130 16 68 32 105 121 81 192 -15 43
-192 305 -228 339 -37 33 -97 47 -144 34 -50 -14 -76 -36 -155 -134 -86 -107
-93 -112 -167 -93 -125 32 -245 48 -405 53 -188 6 -333 -6 -495 -43 -75 -17
-111 -21 -124 -14 -10 6 -50 49 -89 98 -82 100 -117 128 -170 137 -40 7 -99
-12 -133 -43 -33 -30 -210 -294 -224 -334 -24 -71 13 -160 81 -192 24 -11 62
-16 130 -16 53 0 96 -4 96 -9 0 -12 -29 -23 -41 -15 -6 3 -17 0 -25 -7 -12
-10 -22 -10 -50 0 -46 16 -78 9 -204 -49 -128 -58 -248 -100 -288 -100 -68 0
-131 97 -119 185 9 63 69 189 114 240 128 143 137 158 192 330 41 124 80 184
188 285 222 208 511 350 818 403 127 22 494 16 612 -11z m-147 -913 c140 -13
209 -29 224 -52 21 -33 -5 -40 -87 -23 -171 36 -451 38 -626 6 -87 -16 -121
-13 -121 9 0 27 3 28 116 45 181 28 310 32 494 15z m-879 -44 c89 -47 89 -183
0 -230 -61 -31 -136 -11 -171 48 -68 111 55 242 171 182z m1508 -3 c40 -21 71
-73 71 -117 0 -44 -31 -96 -71 -117 -66 -35 -146 -12 -181 53 -35 66 -12 146
53 181 18 10 47 18 64 18 17 0 46 -8 64 -18z m-665 -328 c66 -32 129 -96 159
-162 30 -66 30 -188 0 -254 -30 -66 -92 -130 -160 -163 -51 -26 -69 -29 -148
-29 -79 0 -97 3 -148 29 -68 33 -130 97 -160 163 -30 66 -30 188 0 254 41 89
131 164 227 189 60 16 170 3 230 -27z m756 -454 c0 -5 15 -10 33 -10 20 0 53
-12 83 -32 37 -23 81 -38 179 -58 214 -45 299 -76 344 -124 21 -22 23 -32 18
-76 -7 -61 -61 -177 -152 -329 -191 -318 -399 -513 -720 -674 -141 -70 -195
-88 -267 -88 -114 -1 -150 49 -173 237 -14 121 -25 167 -44 179 -6 3 -11 16
-11 29 0 12 -5 27 -11 33 -13 13 1 175 27 316 l16 88 61 -3 c69 -3 57 9 145
-142 68 -115 71 -116 315 -116 127 0 206 4 220 11 43 22 70 56 165 204 83 130
96 156 99 200 3 38 -1 59 -19 89 -30 51 -62 69 -189 107 -57 17 -109 36 -116
42 -16 17 -29 127 -14 127 6 0 11 -4 11 -10z m-1810 -54 c0 -31 -5 -58 -12
-64 -7 -5 -60 -24 -117 -41 -127 -38 -160 -56 -189 -107 -18 -30 -22 -51 -19
-89 3 -43 16 -70 92 -190 48 -77 100 -153 114 -168 49 -54 64 -57 278 -57 244
0 247 1 315 116 88 150 76 139 141 142 68 4 67 5 90 -143 24 -153 30 -252 18
-260 -6 -3 -11 -17 -11 -30 0 -13 -5 -27 -11 -30 -19 -12 -30 -58 -44 -179
-23 -188 -59 -238 -173 -237 -73 0 -127 18 -272 91 -365 183 -599 425 -779
805 -83 176 -88 209 -41 273 16 23 42 48 57 56 31 15 120 42 168 50 188 31
221 41 275 77 35 24 67 38 88 38 l32 1 0 -54z m297 -102 c106 -86 93 -230 -27
-296 -52 -28 -129 -21 -177 18 -106 86 -93 230 27 296 52 28 129 21 177 -18z
m1420 0 c106 -86 93 -230 -27 -296 -52 -28 -129 -21 -177 18 -106 86 -93 230
27 296 52 28 129 21 177 -18z"/>
<path d="M1703 3095 c-23 -10 -35 -24 -43 -52 -27 -88 48 -155 132 -120 72 30
74 143 2 173 -41 17 -50 17 -91 -1z"/>
<path d="M3215 3101 c-65 -28 -82 -118 -32 -168 22 -22 37 -28 72 -28 126 0
139 184 14 200 -18 3 -43 1 -54 -4z"/>
<path d="M2416 2784 c-103 -32 -172 -100 -201 -197 -19 -64 -19 -100 0 -164
31 -104 103 -170 220 -201 74 -19 142 -10 222 30 115 57 176 202 139 329 -30
105 -97 171 -206 203 -65 19 -110 19 -174 0z"/>
<path d="M1732 2174 c-69 -35 -99 -120 -67 -188 62 -131 253 -101 272 43 15
108 -108 194 -205 145z"/>
<path d="M3152 2174 c-69 -35 -99 -120 -67 -188 62 -131 253 -101 272 43 15
108 -108 194 -205 145z"/>
</g>
</svg>
